<svg width="229" height="75" viewBox="0 0 229 75" fill="none" xmlns="http://www.w3.org/2000/svg">
<path fill-rule="evenodd" clip-rule="evenodd" d="M0 13.6V74.2C3.8 74.2 8.8 73.8 8.8 68V8.8H17.1V69.4H26.3V0H11.4C5.2 0 0 7.1 0 13.6Z" fill="white"/>
<path fill-rule="evenodd" clip-rule="evenodd" d="M203 58C203 62 205.9 65.5 208.3 67.2C212.5 70.2 213.7 69.8 220.6 69.8C221 74.5 225.6 73.8 228.9 73.8V0H220.1V61.1H211.8V0H203V58Z" fill="white"/>
<path fill-rule="evenodd" clip-rule="evenodd" d="M35.2 56.7C35.2 63.5 41.2 69.9 47.9 69.9H61.5V0.4H52.3V61C46.9 61 44 61.8 44 59.7V0H35.2V56.7V56.7Z" fill="white"/>
<path fill-rule="evenodd" clip-rule="evenodd" d="M79.6 34.7H87.9V60.6H79.6V34.7ZM70.8 11.9V69.4H85.3C91.2 69.4 97.2 63.3 97.2 56.2V35.6C97.2 30.8 93.6 25.9 90.2 25.9H79.7V8.8H97.3V0H81.9C76.3 0 70.8 6.5 70.8 11.9Z" fill="white"/>
<path fill-rule="evenodd" clip-rule="evenodd" d="M146.3 9.2H155.1V42.1H146.3V9.2ZM137.5 69.8H146.3V51C151.6 51 156.4 51.8 160.6 46.4C162.6 43.8 163.9 41.3 163.9 37V15.4C163.9 6 157.8 0 151.2 0H137.6V69.8H137.5Z" fill="white"/>
<path fill-rule="evenodd" clip-rule="evenodd" d="M104.2 14.1V55.8C104.2 59.9 105.4 63 107.4 65.3C112.6 71.5 121 69.8 130.6 69.8V61H113.5V35.1H121.8V26.3H113.5V9.2H130.6V0H118.3C110 0 104.2 5.8 104.2 14.1Z" fill="white"/>
<path fill-rule="evenodd" clip-rule="evenodd" d="M170.1 9.2H178.9V59.7C178.9 66.2 181.6 70.2 188.1 70.2V9.2C198.8 9.2 196.9 11 196.9 1.3C196.9 0.3 196.6 0 195.6 0H170.1V9.2Z" fill="white"/>
</svg>
