<?xml version="1.0" encoding="utf-8"?>
<!-- Generator: Adobe Illustrator 22.0.1, SVG Export Plug-In . SVG Version: 6.00 Build 0)  -->
<svg version="1.1" id="Layer_1" xmlns="http://www.w3.org/2000/svg" xmlns:xlink="http://www.w3.org/1999/xlink" x="0px" y="0px"
	 viewBox="0 0 322 107.2" style="enable-background:new 0 0 322 107.2;" xml:space="preserve">
<style type="text/css">
	.st0{fill-rule:evenodd;clip-rule:evenodd;fill:#FFFFFF;}
</style>
<path class="st0" d="M31.1,22.1c-1.8,0-3.4-1.8-3.4,0.2c0,0.6,1.6,2.1,2,2.8c0.7,1.3,0.2,2.7,0.4,4.4c0.3,3,4.3,4,4.3,5.5V85h-4.3
	c0-8.6,0.6-33.4-1-40.8c-0.4-1.7-1-3-1.7-4.3c-0.9-1.8,0-2.7,0-5c0-2.5-2.4-1.9-2.4-5.5c0-1.3,1.4-3.4-0.7-3.4
	c-1.9,0-1.3,3.8-4.6,3.8c-1.4,0,0-0.5-3.4-0.5C16.1,30.5,16,29.3,16,31c0,1.6,1.4,2,1.4,4.3c0,0.8-0.9,0.8-1.7,1.1
	c-0.8,0.3-1.4,0.6-2.3,0.8c0,0.9,0.1,1,0.2,1.7c1.5,0.4,0.7,0,2.2,0c1.8,0,2.6,2.3,3.9,3c1.4,0.8,4.1-0.5,5.7-0.6
	c0.2,0.8,0.5,1.3,0.8,2.1c0.6,2,1.2,6.1,1.2,8.2V85H15c-0.9-4.1-4.8-7.1-8.2-8.9c0-1.6,0.2-2.4,0.2-3.6c0.2-4.6,1.2-16,1.2-19
	c0-4.2,1.1-13.8,1.2-19l1.2-19c4.4-2.3,7.3-4,9.2-9.1C20.1,5.8,20.2,5,21,5h30c1.1,0,0.8,1.3,1.8,3.2c1.2,2.1,2.7,4.1,4.7,5.3
	c1.2,0.7,2.1,1.2,3.3,1.8l0.5,9.3c0.4,4.5,1.2,13.4,1.2,17.3c0,3.6,0.6,9.1,1,13l0.3,6c0.4,4.9,0.9,10.2,0.9,15.4
	c-1.2,0.3-1.8,0.7-2.7,1.4c-1.5,1.2-2.9,2.6-3.9,4.3c-0.6,1-1.1,1.7-1.4,3H44.1V52.1c0-4,0.9-8.1,2.2-10.8c0.3,0.1,3.3,1,3.6,1
	c3.1,0,3.6-3.2,6.2-3.4c1.2-0.1,2.4,0.2,2.4-1c0-1.1-2.8-1.9-4.1-1.9c0-2.6,1.2-1.9,1.2-5.3c0-2.6-2.5-1-4.6-1c-2,0-1.3-3.8-4.8-3.8
	c0,5.9,1.5,2.9-1.3,7.1c-1.5,2.2,0.9,4.3-0.6,7c-2.2,3.8-3.1,8.4-3.1,14.2V85c-2.7,0-4.1,0.4-4.1-0.7V35c0-1.4,4-2.5,4.3-5.3
	c0.2-1.6-0.3-3.2,0.3-4.5c0.5-1.1,2.1-2,2.1-3.2c0-1.5-2,0-3.1,0c-2.8,0-2.6-4.3-5.3-4.3C34.1,17.8,33.2,22.1,31.1,22.1L31.1,22.1z
	 M15.7,1c0,6.2-5.4,10.1-8.4,10.1H5.9c0,1.8-0.1,2.9-0.2,4.3l-0.3,4.3c0,1.6-0.2,2.6-0.2,4.3L2.3,64.6c-0.1,0.8,0,1.6-0.1,2.3
	c-0.1,1.1-0.2,2.9-0.3,4.2c-0.2,1.1-0.2,3.2-0.3,4.2c-0.1,1.6-0.3,3.1-0.3,4.5c4.5,0,9.4,4.4,9.4,10.1h50.2c0.2-2.7,1.2-4.7,2.5-6.4
	c2-2.6,3.7-3.5,6.9-3.5c0-3.1-0.4-5.6-0.5-8.6L68.1,48c0-0.9,0-1.4-0.1-2.3c-0.2-1.2-0.3-3.2-0.4-4.2c-0.1-0.7,0-1.4,0-2.1
	l-1.2-17.3c-0.1-2.7-0.7-7-0.7-11c-2.4,0-5.4-1.6-6.5-2.8c-2.5-2.7-2.8-4.8-2.8-8.2H15.7V1L15.7,1z"/>
<path class="st0" d="M93.1,13.6v60.6c3.8,0,8.8-0.4,8.8-6.2V8.8h8.3v60.6h9.2V0h-14.9C98.3,0,93.1,7.1,93.1,13.6L93.1,13.6z"/>
<path class="st0" d="M296.1,58c0,4,2.9,7.5,5.3,9.2c4.2,3,5.4,2.6,12.3,2.6c0.4,4.7,5,4,8.3,4V0h-8.8v61.1h-8.3V0h-8.8V58L296.1,58z
	"/>
<path class="st0" d="M128.3,56.7c0,6.8,6,13.2,12.7,13.2h13.6V0.4h-9.2v60.6c-5.4,0-8.3,0.8-8.3-1.3V0h-8.8V56.7L128.3,56.7z"/>
<path class="st0" d="M172.7,34.7h8.3v25.9h-8.3V34.7L172.7,34.7z M163.9,11.9v57.5h14.5c5.9,0,11.9-6.1,11.9-13.2V35.6
	c0-4.8-3.6-9.7-7-9.7h-10.5V8.8h17.6V0h-15.4C169.4,0,163.9,6.5,163.9,11.9L163.9,11.9z"/>
<path class="st0" d="M239.4,9.2h8.8v32.9h-8.8V9.2L239.4,9.2z M230.6,69.8h8.8V51c5.3,0,10.1,0.8,14.3-4.6c2-2.6,3.3-5.1,3.3-9.4
	V15.4C257,6,250.9,0,244.3,0h-13.6V69.8L230.6,69.8z"/>
<path class="st0" d="M197.3,14.1v41.7c0,4.1,1.2,7.2,3.2,9.5c5.2,6.2,13.6,4.5,23.2,4.5v-8.8h-17.1V35.1h8.3v-8.8h-8.3V9.2h17.1V0
	h-12.3C203.1,0,197.3,5.8,197.3,14.1L197.3,14.1z"/>
<path class="st0" d="M263.2,9.2h8.8v50.5c0,6.5,2.7,10.5,9.2,10.5V9.2c10.7,0,8.8,1.8,8.8-7.9c0-1-0.3-1.3-1.3-1.3h-25.5V9.2
	L263.2,9.2z"/>
<path class="st0" d="M22.9,95.3c0,1.7,2,2.6,3.8,3.6c0.1-0.1,0.2-0.2,0.2-0.3l0.2-0.2c0.5-0.4-0.1-0.5,1.2-0.5c1,0,2,2,2.7,2.6
	c0.6,0.6,2.6,1.5,3.5,1.7c0,1.9-1.3,4.3,0.4,4.9c0.5,0.2,1.6-0.1,2-0.4c0.5-0.6,0.1-3.2,0.1-4.5c3.9-0.3,4.4-4.3,6.2-4.3
	c1.2,0,1.2,2.4,3.9-0.4c1.9-1.9,1.3-3.7-1.3-3.7H26.1C24.9,93.8,22.9,94.2,22.9,95.3L22.9,95.3z"/>
<path class="st0" d="M67.8,90c1.5,0,3.1-2.1,3.4-3.4c-0.5-0.7-0.6-1-1.3-1.6c-0.2-0.2-1.4-1.3-1.6-1.3c-0.4,0-5.5,1.8-2.5,4.9
	C66.3,89.1,67,90,67.8,90L67.8,90z"/>
<path class="st0" d="M3.3,90c0.3,0,5-2.4,1.7-5.1c-0.4-0.3-1.4-1.2-2-1.2c-1.1,0-3,2.2-3,3.1C0,87.9,2,90,3.3,90L3.3,90z"/>
<path class="st0" d="M4.7,4.3c0,1,2.1,3.1,3.1,3.1c0.9,0,3.1-2.2,3.1-2.9c0-1.4-1.9-3.4-3.1-3.4C6.9,1.2,4.7,3.4,4.7,4.3L4.7,4.3z"
	/>
<path class="st0" d="M60.4,4.1c0,1.4,1.8,3.2,2.9,3.3c1.2,0.1,3.1-1.8,3.1-3c0-1.1-1.8-3.1-2.9-3.1C62.5,1.2,60.4,3.1,60.4,4.1
	L60.4,4.1z"/>
</svg>
