<?xml version="1.0" encoding="utf-8"?>
<!-- Generator: Adobe Illustrator 22.0.1, SVG Export Plug-In . SVG Version: 6.00 Build 0)  -->
<svg version="1.1" id="Layer_1" xmlns="http://www.w3.org/2000/svg" xmlns:xlink="http://www.w3.org/1999/xlink" x="0px" y="0px"
	 viewBox="0 0 24 24" style="enable-background:new 0 0 24 24;" xml:space="preserve">
<style type="text/css">
	.st0{fill:#FFFFFF;}
</style>
<path class="st0" d="M12.7,22.8L12,23.3l-0.7-0.6C5.8,17.9,3,13.7,3,10c0-5.2,4.1-9,9-9s9,3.8,9,9C21,13.7,18.2,17.9,12.7,22.8z
	 M5,10c0,2.8,2.3,6.4,7,10.7c4.7-4.2,7-7.8,7-10.7c0-4.1-3.2-7-7-7S5,5.9,5,10z M12,5c2.8,0,5,2.2,5,5s-2.2,5-5,5s-5-2.2-5-5
	S9.2,5,12,5z M12,7c-1.7,0-3,1.3-3,3s1.3,3,3,3s3-1.3,3-3S13.7,7,12,7z"/>
</svg>
