<?xml version="1.0" encoding="utf-8"?>
<!-- Generator: Adobe Illustrator 22.0.1, SVG Export Plug-In . SVG Version: 6.00 Build 0)  -->
<svg version="1.1" id="OBJECTS" xmlns="http://www.w3.org/2000/svg" xmlns:xlink="http://www.w3.org/1999/xlink" x="0px" y="0px"
	 viewBox="0 0 68.1 85" style="enable-background:new 0 0 68.1 85;" xml:space="preserve">
<style type="text/css">
	.st0{fill:#FFFFFF;}
</style>
<path id="XMLID_23_" class="st0" d="M36.1,0C22.5,0,8.8,6.1,2.8,18.9c-3.2,6.6-3.8,14.6-1,21.4c1.2,2.9,3,5.5,5.6,7.4
	c1,0.7,2.9,2.1,4.3,1.7c1.4-0.4,1.5-2.3,1.8-3.5c0.3-1.2,1-2.6,0.3-3.8c-0.9-1.5-2.2-2.6-2.8-4.4c-0.8-2.3-1.2-5-1.1-7.4
	c0.4-7.6,4.6-14.5,11.1-18.4c10.1-6,27.1-5.1,32.8,6.6c2.8,5.8,2.1,13.1,0.5,19.2c-1.5,5.6-4.5,11.9-10.2,14.4
	c-5.1,2.2-12.5,0.1-12.7-6.3c-0.1-1.8,0.6-3.7,1.1-5.4c0.6-2,1.3-4.1,1.9-6.1c1-3.3,2.2-7,1.3-10.4c-1.6-6.1-9.2-6-12.9-1.9
	c-2.1,2.3-3.1,5.4-3.3,8.4c-0.2,2.3,0.5,4.5,1,6.7c0.2,0.9,0.6,1.8,0.5,2.7c-0.2,1.3-0.6,2.6-0.9,3.8c-1.1,4.5-2.2,9-3.3,13.5
	c-0.9,3.9-2.1,7.8-2.7,11.7c-0.5,3.5-0.5,7-0.2,10.5c0.1,1.2,0.2,2.4,0.4,3.6c0.1,0.5,0,1.6,0.4,2c1,0.9,3.1-2.7,3.5-3.3
	c1.9-2.7,3.7-5.6,5.1-8.6c2-4.4,2.9-9.3,4.2-13.9c0.3-1.2,0.7-2.5,1-3.7c2,3.8,6.9,5.7,11,6c3.8,0.3,7.8-0.4,11.3-1.9
	c7-3,12-9.2,14.7-16.3c2.9-7.6,3.9-16.8,0.9-24.5C63.6,12,58.2,6.5,51.6,3.4C45.7,0.6,39.4,0,32.9,0c3.2,0,6.3,0,9.5,0
	C40.3,0,38.2,0,36.1,0C23.1,0,55.4,0,36.1,0z"/>
</svg>
